<svg width="41" height="28" viewBox="0 0 41 28" fill="none" xmlns="http://www.w3.org/2000/svg">
<g filter="url(#filter0_d_13357_33624)">
<path d="M20.2202 0.324219C22.2248 0.324219 24.1073 0.576766 25.8674 1.08184C27.6276 1.58691 29.2509 2.25176 30.7373 3.07637C32.2236 3.90097 33.5487 4.81318 34.7123 5.81302C35.8857 6.81286 36.8832 7.8127 37.7046 8.81254C38.526 9.81238 39.1519 10.7401 39.5821 11.5956C40.0124 12.4408 40.2275 13.1263 40.2275 13.6519L40.2274 13.6763C40.2208 14.1888 40.0057 14.8662 39.5821 15.7083L39.5413 15.7878C39.1126 16.6113 38.5003 17.5073 37.7046 18.4759C36.8832 19.4757 35.8857 20.4756 34.7123 21.4754C33.5486 22.4753 32.2236 23.3875 30.7373 24.2121L30.6675 24.2506C29.2001 25.0574 27.6001 25.7094 25.8674 26.2066C24.1073 26.7117 22.2248 26.9642 20.2202 26.9642C18.2449 26.9642 16.382 26.7117 14.6317 26.2066C12.9359 25.7173 11.3641 25.0781 9.91622 24.2889L9.7765 24.2121C8.33658 23.4133 7.0435 22.5322 5.89722 21.5689L5.78674 21.4754C4.64998 20.5068 3.67378 19.5383 2.8582 18.5697L2.7798 18.4759C1.97458 17.5073 1.3529 16.6113 0.914767 15.7878L0.872931 15.7083C0.442665 14.8528 0.22754 14.1673 0.227539 13.6519C0.227539 13.1427 0.429442 12.4835 0.833243 11.6743L0.872931 11.5956C1.29922 10.7668 1.90908 9.8703 2.70246 8.90606L2.7798 8.81254C3.611 7.8127 4.6133 6.81286 5.78674 5.81302C6.92354 4.84442 8.20718 3.95805 9.63762 3.1539L9.7765 3.07637C11.2164 2.27753 12.7802 1.62861 14.4679 1.12965L14.6317 1.08184C16.382 0.576764 18.2449 0.32422 20.2202 0.324219ZM20.2202 3.12422C18.4855 3.12422 16.8857 3.34566 15.4079 3.77207C13.8456 4.22287 12.4242 4.8095 11.1349 5.52482C9.79478 6.26826 8.62094 7.0767 7.6027 7.9443C6.5295 8.85874 5.64494 9.74602 4.93294 10.6025C4.19178 11.494 3.68602 12.2492 3.36527 12.8717C3.20168 13.1936 3.10899 13.4272 3.06039 13.5821C3.05229 13.6079 3.04598 13.6299 3.04101 13.6482C3.04602 13.6665 3.05234 13.6885 3.06039 13.7141C3.10972 13.8713 3.20291 14.1072 3.36535 14.4321C3.68729 15.0465 4.19332 15.7963 4.93294 16.6859C5.64494 17.5424 6.5295 18.4297 7.6027 19.3441C8.62094 20.2117 9.79478 21.0202 11.1349 21.7636C12.4242 22.479 13.8456 23.0656 15.4079 23.5164C16.8857 23.9428 18.4855 24.1642 20.2202 24.1642C21.9881 24.1642 23.6086 23.9418 25.0951 23.5152C26.667 23.0642 28.0917 22.4777 29.3789 21.7636C30.7168 21.0214 31.8825 20.2153 32.8876 19.3517L32.8919 19.3479L32.8964 19.3441C33.9669 18.4321 34.8425 17.5488 35.5411 16.6985C36.2746 15.8057 36.7715 15.0559 37.0837 14.4441C37.2499 14.1131 37.3447 13.8732 37.3947 13.7141C37.4027 13.6885 37.409 13.6665 37.414 13.6482C37.4091 13.6299 37.4028 13.6079 37.3947 13.5821C37.3458 13.4263 37.2523 13.1908 37.0868 12.8658L37.0807 12.8536C36.7695 12.2349 36.2736 11.4816 35.5411 10.59C34.8425 9.73962 33.9669 8.85642 32.8964 7.9443L32.8919 7.94054L32.8876 7.93678C31.8825 7.07314 30.7168 6.26702 29.3789 5.52482C28.0917 4.8107 26.667 4.22424 25.0951 3.7732C23.6086 3.34664 21.9881 3.12422 20.2202 3.12422Z" fill="white"/>
</g>
<defs>
<filter id="filter0_d_13357_33624" x="0.227539" y="0.324219" width="40" height="27.6396" filterUnits="userSpaceOnUse" color-interpolation-filters="sRGB">
<feFlood flood-opacity="0" result="BackgroundImageFix"/>
<feColorMatrix in="SourceAlpha" type="matrix" values="0 0 0 0 0 0 0 0 0 0 0 0 0 0 0 0 0 0 127 0" result="hardAlpha"/>
<feOffset dy="1"/>
<feComposite in2="hardAlpha" operator="out"/>
<feColorMatrix type="matrix" values="0 0 0 0 0 0 0 0 0 0 0 0 0 0 0 0 0 0 0.1 0"/>
<feBlend mode="normal" in2="BackgroundImageFix" result="effect1_dropShadow_13357_33624"/>
<feBlend mode="normal" in="SourceGraphic" in2="effect1_dropShadow_13357_33624" result="shape"/>
</filter>
</defs>
</svg>
